<svg width="127.583008" height="16.981201" viewBox="0 0 127.583 16.9812" fill="none" xmlns="http://www.w3.org/2000/svg" xmlns:xlink="http://www.w3.org/1999/xlink">
	<desc>
			Created with Pixso.
	</desc>
	<defs/>
	<path id="LOGO" d="M0 16.98L0 0L3.18 0L11.04 5.51L11.16 5.51L19.02 0L22.2 0L22.2 16.98L18.4 16.98L18.4 4.75L13.01 8.36L13.01 16.98L9.21 16.98L9.21 8.36L3.79 4.75L3.79 16.98L0 16.98ZM25.77 16.98L25.77 0L29.57 0L29.57 16.98L25.77 16.98ZM33.13 16.98L33.13 0L36.97 0L48.99 12.2L48.99 0L52.79 0L52.79 16.98L48.94 16.98L36.93 4.75L36.93 16.98L33.13 16.98ZM56.35 16.98L56.35 0L60.15 0L60.15 16.98L56.35 16.98ZM63.71 16.98L63.71 0L66.89 0L74.75 5.51L74.87 5.51L82.73 0L85.91 0L85.91 16.98L82.11 16.98L82.11 4.75L76.72 8.36L76.72 16.98L72.92 16.98L72.92 8.36L67.51 4.75L67.51 16.98L63.71 16.98ZM88.05 16.98L95.7 0L101.57 0L109.22 16.98L105.08 16.98L103.47 13.39L93.8 13.39L92.19 16.98L88.05 16.98ZM111.36 16.98L111.36 0L115.16 0L115.16 13.89L127.58 13.89L127.58 16.98L111.36 16.98ZM95.18 10.3L102.09 10.3L98.79 2.96L98.48 2.96L95.18 10.3Z" fill="#0A224A" fill-opacity="1.000000" fill-rule="evenodd"/>
</svg>
